<?xml version="1.0" standalone="no"?><!DOCTYPE svg PUBLIC "-//W3C//DTD SVG 1.1//EN" "http://www.w3.org/Graphics/SVG/1.1/DTD/svg11.dtd"><svg t="1770939187950" class="icon" viewBox="0 0 1024 1024" version="1.1" xmlns="http://www.w3.org/2000/svg" p-id="13093" xmlns:xlink="http://www.w3.org/1999/xlink" width="200" height="200"><path d="M681.209081 355.52173a39.078054 39.078054 0 0 0-55.157622 0l-114.438918 114.438919-109.872433-109.872433a37.860324 37.860324 0 1 0-53.580108 53.580108l109.872432 109.872433-114.438918 114.438919a39.022703 39.022703 0 0 0 55.157621 55.129946l114.438919-114.411244 110.508973 110.425946a37.832649 37.832649 0 1 0 53.552432-53.524756l-110.481297-110.481298 114.438919-114.438919c15.193946-15.221622 15.193946-39.908324 0-55.157621M512 936.76627c-227.964541 0-412.810378-184.845838-412.810378-412.810378C99.189622 295.936 284.035459 111.145514 512 111.145514c227.992216 0 412.810378 184.790486 412.810378 412.810378 0 227.964541-184.818162 412.810378-412.810378 412.810378" fill="#fc2004" p-id="13094"></path></svg>