<?xml version="1.0" standalone="no"?><!DOCTYPE svg PUBLIC "-//W3C//DTD SVG 1.1//EN" "http://www.w3.org/Graphics/SVG/1.1/DTD/svg11.dtd"><svg t="1777925627419" class="icon" viewBox="0 0 1024 1024" version="1.1" xmlns="http://www.w3.org/2000/svg" p-id="3127" xmlns:xlink="http://www.w3.org/1999/xlink" width="200" height="200"><path d="M975.51488 405.056l-2.752-2.432a1462.336 1462.336 0 0 1-142.016-126.976 406.272 406.272 0 0 0-143.424-94.272l-4.288-1.152a629.952 629.952 0 0 0-381.952 60.736l-3.2 2.048A1383.744 1383.744 0 0 0 49.94688 477.12a210.176 210.176 0 0 0-29.504 226.56 324.544 324.544 0 0 0 275.2 154.816 379.328 379.328 0 0 0 198.4-59.584c112.64-68.416 311.936-176.512 368.896-176.512 75.456 0 105.92-16.192 118.208-29.12a102.016 102.016 0 0 0 42.688-74.304 164.928 164.928 0 0 0-48.64-113.856z m-29.12 141.76l-4.672 3.392-0.832 1.472a168.576 168.576 0 0 1-77.632 11.584c-91.008 0-366.784 165.952-397.888 184.896l-1.408 0.96a302.656 302.656 0 0 1-276.992 26.688 259.84 259.84 0 0 1-114.496-96l-2.304-4.8a149.312 149.312 0 0 1 24.96-161.664A1332.352 1332.352 0 0 1 328.79488 292.864a583.936 583.936 0 0 1 341.888-54.656 352.64 352.64 0 0 1 119.36 78.592 1467.136 1467.136 0 0 0 147.2 132.224 105.28 105.28 0 0 1 30.464 65.408 43.072 43.072 0 0 1-21.44 32.576z m-189.504-216.64c-105.536-130.24-371.2-22.528-401.28-9.792a974.976 974.976 0 0 0-176.832 153.6 127.296 127.296 0 0 0-38.016 97.664c8.128 124.672 201.344 141.888 212.928 142.784a166.912 166.912 0 0 0 17.984 0.96 406.592 406.592 0 0 0 111.744-20.288 162.048 162.048 0 0 0 41.024-19.584A665.6 665.6 0 0 1 799.19488 563.84c56-2.752 90.432-17.28 105.024-44.288a75.904 75.904 0 0 0-5.184-72.896 938.688 938.688 0 0 0-142.208-116.16z m118.72 171.904c-4.864 8.768-21.248 23.936-77.952 26.752a679.36 679.36 0 0 0-290.688 116.928 133.824 133.824 0 0 1-32.96 15.744 329.792 329.792 0 0 1-117.056 18.112h-0.448c-1.792 0-176.448-14.72-182.656-110.656a91.968 91.968 0 0 1 27.968-70.4 942.912 942.912 0 0 1 166.4-146.176 679.552 679.552 0 0 1 227.52-51.2 167.04 167.04 0 0 1 137.28 52.992l1.344 1.792 1.92 1.344c59.456 44.224 125.312 95.552 134.4 106.368a45.824 45.824 0 0 1 5.184 38.4z m-251.392-128c-130.24-61.888-257.28 50.56-263.296 56.064-53.952 57.92-73.024 99.712-58.496 127.616 12.224 23.488 45.952 29.696 78.336 29.696a361.792 361.792 0 0 0 69.184-7.488 452.032 452.032 0 0 0 102.4-37.248 990.336 990.336 0 0 1 181.376-46.144l2.816-0.512 2.176-1.984a28.416 28.416 0 0 0 9.984-26.304c-6.4-40.512-105.408-85.184-124.928-93.568z m103.04 101.184a999.936 999.936 0 0 0-185.6 48.704 440.32 440.32 0 0 1-96 34.304c-35.008 7.424-111.296 14.528-124.672-11.136-5.184-10.176-5.12-36.864 54.4-100.928a286.08 286.08 0 0 1 167.424-68.16 168.768 168.768 0 0 1 73.088 16.32c44.8 19.2 109.184 55.936 112.448 76.8a4.672 4.672 0 0 1-1.024 4.096z" p-id="3128" fill="#2c2c2c"></path></svg>