<?xml version="1.0" standalone="no"?><!DOCTYPE svg PUBLIC "-//W3C//DTD SVG 1.1//EN" "http://www.w3.org/Graphics/SVG/1.1/DTD/svg11.dtd"><svg t="1777925602741" class="icon" viewBox="0 0 1024 1024" version="1.1" xmlns="http://www.w3.org/2000/svg" p-id="1970" xmlns:xlink="http://www.w3.org/1999/xlink" width="200" height="200"><path d="M775.75442 980.49197c-17.486481-22.274446-62.65989-83.477129-105.907705-169.556414l0.83269 0-14.676154-28.467575c-24.720472-53.396219-47.671478-100.703395-62.763976-167.162431L588.659482 593.81175c-1.092905-5.724741-2.289896-11.345395-3.122586-17.070136C572.213863 501.227079 562.794063 449.652368 556.184589 381.736125l-1.040862-8.74324C546.712745 283.843058 542.861556 230.863184 541.092091 182.983533l-0.364302-8.847327C540.311444 153.735312 539.999186 139.527546 539.895099 133.230331c2.654198-2.289896 5.20431-5.100224 6.869689-8.22281 2.393983-4.319577 11.501525-9.523887 11.501525-9.523887L558.266313 100.44318 537.188858 100.44318 537.188858 72.964424c0-9.627973-9.107542-17.590567-20.921325-19.203903L516.267533 0.052043 507.732465 0.052043l0 53.708477c-11.917869 1.561293-20.973369 9.57593-20.973369 19.203903L486.759096 100.44318 465.577555 100.44318l0 15.040455c0 0 9.315715 5.20431 11.605611 9.523887 1.717422 3.122586 4.319577 5.88087 6.921732 8.22281C483.844683 139.527546 483.740597 153.735312 483.116079 174.136207l-0.416345 8.847327c-1.665379 47.87965-5.464525 100.859524-14.051637 190.009351L467.815408 381.736125C461.153892 449.652368 451.786134 501.122992 438.515144 576.689571c-0.936776 5.672698-2.133767 11.345395-3.174629 17.070136l-4.683879 21.441756c-15.196585 66.563123-38.043505 113.818256-62.81602 167.214474l-14.467981 28.467575 0.67656 0c-43.143728 86.079284-88.421224 147.281968-105.959748 169.556414L201.614961 980.439927l0 43.50803 620.770075 0 0-43.50803L775.75442 980.49197 775.75442 980.49197zM482.387476 581.009148C492.587923 504.141492 499.301483 451.005489 503.256758 381.736125l17.330352 0c4.163448 69.269364 10.616792 122.405367 20.973369 199.273023 0.520431 4.215491 1.196991 8.483025 1.873552 12.750559L480.461881 593.759707C481.138442 589.492173 481.762959 585.224639 482.387476 581.009148zM471.562512 646.167107 552.385443 646.167107c11.189266 55.738158 25.761334 92.168327 41.478349 136.300874L430.084162 782.467981C445.801178 738.335434 460.477332 701.905265 471.562512 646.167107zM332.763569 980.49197c9.315715-13.531206 26.073592-40.021143 45.381582-77.804432 28.988006-39.81297 78.897337-66.459036 133.854849-66.459036 54.957512 0 107.468998 32.891238 133.854849 66.459036 19.15186 37.835332 36.013824 64.221183 45.329539 77.804432L332.763569 980.49197z" p-id="1971" fill="#2c2c2c"></path></svg>