<?xml version="1.0" standalone="no"?><!DOCTYPE svg PUBLIC "-//W3C//DTD SVG 1.1//EN" "http://www.w3.org/Graphics/SVG/1.1/DTD/svg11.dtd"><svg t="1771063933600" class="icon" viewBox="0 0 1024 1024" version="1.1" xmlns="http://www.w3.org/2000/svg" p-id="13733" xmlns:xlink="http://www.w3.org/1999/xlink" width="200" height="200"><path d="M499.055 431.739c0-2.59 0-2.59 0 0 0-2.59 0 0 0 0z m168.29 186.413z m5.178 0h-5.178s2.589 2.59 5.178 0zM506.822 64.09C263.449 64.09 64.09 260.86 64.09 506.822s196.77 442.732 442.732 442.732c243.373 0 442.732-196.77 442.732-442.732S752.784 64.09 506.822 64.09z m282.21 173.468c-15.535 0-25.892 0-38.837 7.767-5.178 2.59-7.767 7.767-15.534 10.356-5.179 2.59-12.946 0-18.124 2.59-20.713 7.767-18.123 49.192-44.014 44.014-12.946-2.59-20.713-18.124-28.48-28.48-5.178-7.767-15.535-15.535-7.767-25.89h-10.357c5.179-10.357 18.124-7.768 20.713-12.946 5.178-12.946-15.534-12.946-23.302-15.535 7.768-7.767 10.357 2.59 18.124 0 7.767-2.589-2.59-10.356-7.767-12.945-2.59 0-25.891 7.767-12.946-5.178-18.123-10.356-36.247-23.302-54.37-33.658-2.59 12.945 23.301 20.712 33.658 23.302-2.59 5.178-10.357 12.945-15.535 10.356-5.178-2.59-2.589-12.946-12.945-10.356-5.178 15.534 12.945 10.356 15.534 20.712 2.59 10.356-7.767 5.178-10.356 5.178 0 0-7.767-7.767-7.767-2.589 0 5.178 10.356 5.178 12.945 10.357-12.945 0-20.713-5.179-31.069-10.357-12.945-7.767-18.123-7.767-33.658-7.767 5.178-2.59 10.356-2.59 15.535-5.178 2.589-2.59 10.356-10.356 10.356-12.946 2.589-7.767 0-7.767-7.767-12.945-2.59-2.589-10.357-12.945-20.713-12.945-28.48-5.178-10.356 25.89-31.069 31.069-5.178 0-15.534-2.59-18.123 2.589-2.59 2.589-2.59 10.356-5.179 12.945-5.178 5.178-12.945 5.178-18.123 10.356-5.178 2.59-18.124 12.946-20.713 18.124-12.945 23.302 25.891 31.069 41.426 36.247 7.767 2.589 25.89 7.767 28.48 12.945 5.178 7.768-5.179 12.946 5.178 18.124 2.589 2.589 10.356 2.589 12.945-2.59 5.178-5.177-2.59-5.177-2.59-12.945-2.588-10.356 2.59-7.767 7.768-10.356 10.356-7.767 7.767-10.356 5.178-23.302-2.589-5.178-10.356-23.301-2.589-28.48 7.767-5.178 25.89 2.59 33.658 5.179 7.767 0 12.946 10.356 15.535 15.534 2.589 2.59 7.767 7.767 12.945 7.767 7.767 0 5.178-7.767 7.767-10.356 12.946-7.767 15.535 2.59 20.713 12.945 5.178 10.357 7.767 12.946 15.534 20.713 2.59 2.59 20.713 12.945 18.124 20.713 0 5.178-18.124 10.356-23.302 12.945-18.123 5.178-51.781-10.356-54.37 18.124 7.767-2.59 25.89-18.124 31.068-10.357 2.59 2.59-2.589 7.768 0 12.946 2.59 10.356 10.357 7.767 20.713 5.178h-2.589c10.356-5.178 10.356-5.178 15.534-12.946 2.59-2.589 5.179-10.356 7.768-12.945 7.767-7.767 10.356-2.589 15.534 2.59 2.59 2.588 12.946 20.712 10.356 18.123-15.534-2.59-28.48-2.59-41.425 5.178-7.767 5.178-12.945 10.356-20.712 12.945-2.59 0-18.124 2.59-15.535 0 2.59-2.589 10.356-5.178 15.535-10.356-10.357-5.178-18.124 5.178-25.891 10.356-7.767 2.59-10.356 10.357-15.535 18.124-2.589 2.589-7.767 2.589-10.356 7.767-2.589 2.59-2.589 7.767-5.178 12.945-2.59 2.59-7.767 0-7.767 5.179-2.59 5.178 2.589 7.767 0 12.945s-12.946 10.356-18.124 15.534l2.59-2.589c-5.179 5.178-10.357 7.768-12.946 12.946 2.589 7.767 7.767 25.89 5.178 28.48-12.945 10.356-20.713-10.357-25.89-15.535-12.946-18.123-36.248-5.178-54.371-5.178-20.713 2.589-41.426 28.48-28.48 51.781 5.178 10.357 18.123 15.535 28.48 12.946 10.356-2.59 12.945-18.124 23.301-18.124 18.124 0 0 18.124 0 25.891-2.589 5.178 2.59 7.767 7.768 7.767s12.945-2.589 15.534 0c2.59 2.59 2.59 10.357 5.178 7.768-7.767 5.178-5.178 20.712 2.59 25.89 7.766 5.178 18.123 0 25.89 2.59 15.534 5.178 7.767 0 23.302-10.357 10.356-5.178 10.356 0 18.123 0 5.178 0 7.767-5.178 15.535-5.178 5.178 2.589 7.767 5.178 15.534 7.767h7.767c12.946 2.59 23.302 10.356 33.658 18.124 7.768 5.178 15.535 5.178 25.891 7.767 7.767 2.589 20.713 12.945 20.713 23.302 0 2.589-7.767 10.356-7.767 12.945 2.589 2.59 15.534-2.59 18.123-2.59 0 2.59-10.356 7.768-10.356 5.18 0 2.588 5.178 5.177 7.767 5.177 5.178-15.534 12.945-5.178 20.713-2.589 7.767 2.59 18.123 2.59 25.89 5.178 7.768 2.59 23.302 7.768 28.48 12.946 5.178 7.767 2.59 18.123-2.589 25.89-5.178 10.357-15.534 12.946-20.712 23.302-2.59 7.767 0 18.124-2.59 25.89-2.589 12.946-5.178 7.768-12.945 15.535s0 5.179-10.356 10.357-18.124 2.589-25.891 12.945v-2.589c-2.59 5.178-5.178 12.945-5.178 15.534-2.59 7.768-7.767 10.357-12.946 15.535-2.589 2.589-20.712 28.48-20.712 25.89-2.59-2.588-15.535 2.59-15.535 0 0 2.59 0 2.59 2.59 5.179-2.59 20.712-12.946 23.301-33.659 23.301 2.59 10.357-7.767 7.768-12.945 12.946-2.589 2.589-2.589 12.945-5.178 15.534 0 2.59-10.356 12.946-10.356 15.535 0 2.589 2.589 5.178 5.178 7.767-15.535 2.59-28.48 5.178-44.015 5.178 2.59-2.589 2.59-7.767-5.178-7.767 2.59-7.767 7.768-10.356 10.357-15.535v-7.767c2.589-10.356 2.589-5.178 0-12.945-5.179-18.124 2.589-23.302 7.767-41.425 5.178-18.124 5.178-38.836 7.767-59.55 2.59-7.766 5.178-28.479 0-36.246-2.589-10.356-18.123-18.124-25.89-23.302-10.357-10.356-15.535-18.123-23.302-31.069-2.59-5.178-7.768-10.356-10.357-18.123-5.178-12.946 0-5.178 0-12.946s0-15.534 2.59-23.301c2.588-7.768 10.356-15.535 15.534-23.302 2.589-7.767 0-18.124-7.767-20.713-5.179-2.589-10.357 2.59-12.946 0-5.178 0-12.945-5.178-18.123-10.356-7.768-5.178-10.357-12.945-18.124-18.124-5.178-5.178-10.356-2.589-18.123-2.589-7.768-2.589-10.357-10.356-15.535-12.945-7.767-5.178-12.945 2.59-20.712 0-7.768 0-18.124-10.356-25.891-12.945-15.535-5.179-23.302-12.946-28.48-28.48-5.178-12.946-12.945-18.124-20.713-28.48-7.767-10.356-10.356-18.124-23.301-23.302-2.59 0 2.589 10.357 2.589 12.946 5.178 7.767 12.945 15.534 18.123 25.89 7.767 12.946 5.178 12.946-2.589 2.59-10.356-12.946-20.712-25.891-28.48-38.837 5.178 5.178 5.178 0 0-5.178s-12.945-7.767-15.534-12.945c-18.124-15.535-20.713-38.836-20.713-62.138 0-7.767 2.59-12.945 2.59-20.713 0-5.178-5.179-10.356-10.357-15.534-2.589-2.59-5.178-7.767-5.178-7.767-5.178-7.768-7.767-12.946-12.945-18.124-2.59-2.589-12.946-10.356-23.302-18.123 41.425-51.782 95.796-93.207 157.933-119.098 0 2.59 2.59 5.178 2.59 10.356 7.767 7.768 12.945 7.768 20.712 10.357 0 10.356-15.534 12.945-23.302 10.356-10.356-2.59-23.301-5.178-31.068 5.178 5.178 2.59 20.712 15.535 18.123 2.59h31.069c5.178 0 18.124 5.177 20.713 2.588 2.589 0 2.589-7.767 5.178-10.356-2.59 0-5.178-2.59-7.767 0 7.767-7.767 12.945-2.59 23.301 2.589-10.356 5.178-2.589 20.713 5.178 7.767 7.768-10.356-2.589-15.534-10.356-20.712 10.356-12.946 15.535-12.946 25.89 0 2.59-7.768 7.768-5.178 15.535-5.178v-2.59c-2.589 0-7.767-2.589-10.356-2.589 7.767-12.945 2.59-15.534 12.945-18.123 7.768-2.59 31.07 0 36.247-7.767-15.534 2.589-36.247 5.178-51.781 10.356-7.767 2.589-12.945 12.945-20.713 7.767-7.767-7.767 5.178-18.123 10.357-20.712h-2.59c25.891-5.179 54.371-7.768 82.851-7.768 18.124 0 36.247 2.59 54.37 2.59-5.178 2.588-2.588 5.178-5.178 7.767-7.767 5.178-23.301 10.356-33.658 15.534 12.946 0 44.015 12.945 49.193-5.178-5.178 0-7.767 0-12.945-2.59 7.767-5.177 15.534-10.355 25.89-12.945 75.084 18.124 147.578 59.55 199.36 116.509 2.588 0 0 0 0 0z m72.493 155.344c0-2.589 2.59-2.589 2.59-2.589 2.588-2.589 0-5.178 2.588-7.767 2.59-2.589 5.179-2.589 7.768-5.178l2.589-2.59c7.767 18.124 12.945 36.248 15.534 56.96l-7.767 2.59c-5.178 0-7.767-2.59-10.356-5.178l-10.357-10.357c-2.589-5.178 0-7.767 0-12.945-2.589-5.178-5.178-10.356-2.589-12.946z m5.178 201.948c-7.767-7.767-15.534-15.534-20.712-23.301-5.178-10.357-2.59-18.124-2.59-28.48 0-7.767-5.177-20.713 0-28.48l7.768-7.767c2.59-5.178 2.59-10.356 7.767-15.535 5.178-5.178 10.357-7.767 15.535-12.945 5.178-5.178 5.178-7.767 7.767-15.534 2.589-5.179 7.767-12.946 12.945-15.535 2.59 20.713 5.178 38.836 5.178 59.549 0 33.658-5.178 69.905-12.945 100.974-7.767-2.59-15.534-7.767-20.713-12.946z m0 0" p-id="13734" fill="#1296db"></path></svg>