<svg version="1.2" xmlns="http://www.w3.org/2000/svg" viewBox="0 0 200 200" width="200" height="200">
	<path fill="#f44d38" d="m167.5 12.5c6.26 0 12.04 3.34 15.17 8.77 3.12 5.42 3.11 12.11-0.04 17.52-3.14 5.41-8.94 8.73-15.2 8.71-6.26-0.02-12.03-3.39-15.13-8.83-59.02 7.88-105.75 54.61-113.63 113.63 3.37 1.9 6.01 4.87 7.51 8.43 1.5 3.57 1.78 7.53 0.79 11.27-0.99 3.74-3.2 7.04-6.27 9.4-3.07 2.35-6.83 3.62-10.7 3.6-4.09 0-8.05-1.43-11.19-4.04-3.14-2.61-5.27-6.24-6.02-10.26-0.75-4.01-0.07-8.17 1.92-11.74 2-3.56 5.18-6.32 8.99-7.79 8.44-66.4 61.06-119.02 127.46-127.47q0.96-2.47 2.6-4.55 1.65-2.08 3.83-3.58 2.19-1.5 4.72-2.29 2.54-0.78 5.19-0.78z"/>
	<path id="Layer copy" fill="#f44d38" d="m30.5 185.5c-6.26 0-12.04-3.34-15.17-8.77-3.12-5.42-3.11-12.11 0.04-17.52 3.14-5.41 8.94-8.73 15.2-8.71 6.26 0.02 12.03 3.39 15.13 8.83 59.02-7.88 105.75-54.61 113.63-113.63-3.37-1.9-6.01-4.87-7.51-8.43-1.5-3.57-1.78-7.53-0.79-11.27 0.99-3.74 3.2-7.04 6.27-9.4 3.07-2.35 6.83-3.62 10.7-3.6 4.09 0 8.05 1.43 11.19 4.04 3.14 2.61 5.27 6.24 6.02 10.26 0.75 4.01 0.07 8.17-1.92 11.74-2 3.56-5.18 6.32-8.99 7.79-8.44 66.4-61.06 119.02-127.46 127.47q-0.96 2.47-2.6 4.55-1.65 2.08-3.83 3.58-2.19 1.5-4.72 2.29-2.54 0.78-5.19 0.78z"/>
</svg>