<?xml version="1.0" standalone="no"?><!DOCTYPE svg PUBLIC "-//W3C//DTD SVG 1.1//EN" "http://www.w3.org/Graphics/SVG/1.1/DTD/svg11.dtd"><svg t="1770775907679" class="icon" viewBox="0 0 1024 1024" version="1.1" xmlns="http://www.w3.org/2000/svg" p-id="1409" xmlns:xlink="http://www.w3.org/1999/xlink" width="200" height="200"><path d="M512 450.56a30.72 30.72 0 0 1 30.69952 29.568L542.72 481.28v368.64a30.72 30.72 0 0 1-61.41952 1.152L481.28 849.92V481.28a30.72 30.72 0 0 1 30.72-30.72zM512 143.36a30.72 30.72 0 0 1 30.69952 29.568L542.72 174.08v184.32a30.72 30.72 0 0 1-61.41952 1.152L481.28 358.4V174.08a30.72 30.72 0 0 1 30.72-30.72zM788.48 757.76a30.72 30.72 0 0 1 30.69952 29.568L819.2 788.48v61.44a30.72 30.72 0 0 1-61.4144 1.152L757.76 849.92 757.76 788.48a30.72 30.72 0 0 1 30.72-30.72zM788.48 143.36a30.72 30.72 0 0 1 30.69952 29.568l0.0256 1.152-0.00512 491.52a30.72 30.72 0 0 1-61.41952 1.152L757.76 665.6V174.08a30.72 30.72 0 0 1 30.72-30.72z" fill="#000000" p-id="1410"></path><path d="M880.64 634.88a30.72 30.72 0 0 1 1.152 61.41952L880.64 696.32h-184.32a30.72 30.72 0 0 1-1.152-61.41952L696.32 634.88h184.32zM235.52 634.88a30.72 30.72 0 0 1 30.69952 29.568L266.24 665.6v184.32a30.72 30.72 0 0 1-61.41952 1.152L204.8 849.92v-184.32a30.72 30.72 0 0 1 30.72-30.72zM235.52 143.36a30.72 30.72 0 0 1 30.6944 29.568L266.24 174.08v368.64a30.72 30.72 0 0 1-61.41952 1.152L204.8 542.72V174.08a30.72 30.72 0 0 1 30.72-30.72z" fill="#000000" p-id="1411"></path><path d="M327.68 512a30.72 30.72 0 0 1 1.152 61.41952L327.68 573.44H143.36a30.72 30.72 0 0 1-1.152-61.41952L143.36 512h184.32zM604.16 327.68a30.72 30.72 0 0 1 1.152 61.41952L604.16 389.12H419.84a30.72 30.72 0 0 1-1.152-61.41952L419.84 327.68h184.32z" fill="#000000" p-id="1412"></path></svg>