<?xml version="1.0" standalone="no"?><!DOCTYPE svg PUBLIC "-//W3C//DTD SVG 1.1//EN" "http://www.w3.org/Graphics/SVG/1.1/DTD/svg11.dtd"><svg t="1777720904770" class="icon" viewBox="0 0 1024 1024" version="1.1" xmlns="http://www.w3.org/2000/svg" p-id="5666" xmlns:xlink="http://www.w3.org/1999/xlink" width="200" height="200"><path d="M863.552 1024H140.608A44.672 44.672 0 0 1 96 979.392V44.608C96 20.032 116.032 0 140.608 0h722.944c24.576 0 44.608 20.032 44.608 44.608v934.784a44.608 44.608 0 0 1-44.608 44.608zM534.464 454.08c12.544 0.384 25.088 1.28 37.44 2.368a222.528 222.528 0 0 1-37.44 38.4v-40.768z m81.152 8.64c-9.28 14.72-20.416 28.608-33.088 41.6 25.856-7.424 49.28-18.688 69.312-33.152a346.368 346.368 0 0 0-36.224-8.448zM457.6 456.448c10.496 13.824 22.912 26.752 37.376 38.4v-40.768c-12.672 0.512-25.088 1.28-37.376 2.368z m-108.288 296.32c0-12.352-8.576-19.328-23.68-19.328-6.08 0-9.6 0.384-11.392 0.64v39.424c2.24 0.384 5.056 0.512 9.088 0.512 16.256 0.128 25.984-7.872 25.984-21.312zM413.824 462.72a400.832 400.832 0 0 0-36.288 8.448c20.032 14.464 43.52 25.728 69.376 33.088a254.72 254.72 0 0 1-33.088-41.6z m39.168 295.552a438.72 438.72 0 0 1-5.12-19.52 336.768 336.768 0 0 1-4.672 19.904l-8.32 29.952h26.944l-8.832-30.336z m129.664-574.72c12.032 12.416 22.656 25.6 31.552 39.552 12.416-2.304 24.32-4.928 35.52-8.128a220.608 220.608 0 0 0-67.072-31.36z m-87.616 9.152a225.28 225.28 0 0 0-35.84 36.224c11.776 1.152 23.68 1.92 35.84 2.304V192.64z m75.2 36.352a229.76 229.76 0 0 0-35.776-36.224v38.528a819.2 819.2 0 0 0 35.776-2.304z m-246.72 573.12c20.032 0 36.48-5.312 47.424-15.488 8.768-8 13.696-20.416 13.696-35.072a42.944 42.944 0 0 0-15.872-34.368c-9.984-8-24.576-11.776-44.608-11.776a280.96 280.96 0 0 0-43.84 2.88l-1.408 0.256v143.872h35.392v-50.816a62.08 62.08 0 0 0 9.216 0.512z m193.472 50.304l-45.504-145.92h-44.8l-44.352 145.92h36.8l10.112-36.608h38.272l11.072 36.608h38.4z m58.688 2.176c43.584 0 59.072-24.704 59.072-45.888 0-20.8-11.648-34.496-37.888-44.16-19.008-7.04-25.344-10.752-25.344-18.496 0-5.952 5.952-12.032 19.136-12.032 13.824 0 23.936 4.224 28.864 6.592l1.792 0.896 8.128-29.184-1.28-0.64a85.504 85.504 0 0 0-37.12-7.296c-32.704 0-55.68 18.24-55.68 44.352 0 19.52 13.568 34.368 40.576 43.84 16.704 5.824 22.784 10.688 22.784 18.24 0 8.768-7.552 13.824-20.864 13.824-13.568 0-27.008-4.48-35.008-8.704l-1.92-1.024-7.36 29.76 1.152 0.64c7.616 4.608 23.872 9.28 40.96 9.28z m115.84 0c43.648 0 59.072-24.704 59.072-45.888 0-20.8-11.648-34.496-37.888-44.16-19.008-7.04-25.344-10.752-25.344-18.496 0-5.952 5.824-12.032 19.008-12.032 13.824 0 23.936 4.224 28.928 6.592l1.728 0.896 8.128-29.184-1.28-0.64a85.504 85.504 0 0 0-37.12-7.296c-32.704 0-55.68 18.24-55.68 44.352 0 19.52 13.568 34.368 40.448 43.84 16.768 5.824 22.848 10.688 22.848 18.24 0 8.768-7.616 13.824-20.928 13.824-13.568 0-27.008-4.48-35.008-8.704l-1.92-1.024-7.296 29.76 1.152 0.64c7.808 4.608 24.064 9.28 41.152 9.28z m14.592-378.432c23.552-24.192 40.576-53.12 49.28-84.672h-41.28a162.112 162.112 0 0 1-28.928 49.28 354.88 354.88 0 0 0-51.2-14.656c4.48-11.264 8-22.784 10.624-34.56H604.16a196.992 196.992 0 0 1-9.92 27.84 574.72 574.72 0 0 0-59.84-4.544v-23.36h-39.424v23.36c-20.416 0.64-40.448 2.112-59.84 4.544a182.4 182.4 0 0 1-9.856-27.904H384.64c2.688 11.84 6.08 23.36 10.624 34.624-18.496 3.904-35.584 8.896-51.072 14.72a158.144 158.144 0 0 1-28.864-49.28h-41.216a198.4 198.4 0 0 0 50.688 86.144l1.536 1.408c45.376 45.12 112.96 73.92 188.352 73.92 74.88 0 142.016-28.416 187.392-73.024a19.072 19.072 0 0 0 4.032-3.84z m56.064-132.288a166.4 166.4 0 0 0-1.152-19.52H268.416a166.4 166.4 0 0 0 0 39.04h492.608c0.64-6.464 1.152-12.928 1.152-19.52z m-6.848-47.68a198.528 198.528 0 0 0-54.144-89.408c-45.44-44.16-112.192-72.256-186.624-72.256-74.496 0-141.312 28.16-186.688 72.384l-1.92 1.792a198.912 198.912 0 0 0-51.968 87.488h41.216c6.72-18.56 16.96-35.776 30.4-50.944 15.36 5.696 32.192 10.368 50.304 14.144a220.8 220.8 0 0 0-11.52 36.8h40.704c2.88-10.24 6.4-20.416 11.008-30.208 19.008 2.432 38.784 3.84 58.688 4.48v25.728h39.424v-25.728c19.904-0.64 39.68-2.048 58.688-4.48 4.608 9.792 8.128 19.904 11.072 30.208h40.64a233.28 233.28 0 0 0-11.52-36.8c18.24-3.776 35.136-8.448 50.496-14.144 13.44 15.36 23.68 32.576 30.4 50.944h41.344z m-375.68-81.28c11.2 3.2 23.104 5.824 35.52 8.128 9.024-13.952 19.52-27.136 31.616-39.552a220.608 220.608 0 0 0-67.072 31.424z" fill="#2299ff" p-id="5667"></path></svg>