<?xml version="1.0" standalone="no"?><!DOCTYPE svg PUBLIC "-//W3C//DTD SVG 1.1//EN" "http://www.w3.org/Graphics/SVG/1.1/DTD/svg11.dtd"><svg t="1770627089464" class="icon" viewBox="0 0 1600 1024" version="1.1" xmlns="http://www.w3.org/2000/svg" p-id="5909" xmlns:xlink="http://www.w3.org/1999/xlink" width="312.5" height="200"><path d="M805.391 747.12c125.305 0 226.891-100.157 226.891-223.701S930.696 299.73 805.392 299.73c-125.305 0-226.891 100.144-226.891 223.688 0 123.544 101.586 223.702 226.89 223.702" p-id="5910" fill="#333333"></path><path d="M475.12 449.68c32.323-148.95 166.582-260.649 327.297-260.649 160.73 0 294.99 111.699 327.312 260.65h466.581V134.122c0-69.494-57.277-125.523-127.93-125.523H127.936C56.82 8.6 0.005 64.796 0.005 134.123V448.96l475.115 0.72zM1131.436 580c-29.01 153.143-165.277 269.049-329.01 269.049S502.413 733.143 473.416 580H0v318.477C0 967.957 57.277 1024 127.944 1024h1340.431c71.13 0 127.943-56.21 127.943-125.523V580h-464.882z" p-id="5911" fill="#333333"></path></svg>