<?xml version="1.0" standalone="no"?><!DOCTYPE svg PUBLIC "-//W3C//DTD SVG 1.1//EN" "http://www.w3.org/Graphics/SVG/1.1/DTD/svg11.dtd"><svg t="1770939392672" class="icon" viewBox="0 0 1024 1024" version="1.1" xmlns="http://www.w3.org/2000/svg" p-id="19602" data-spm-anchor-id="a313x.search_index.0.i18.36eb3a81LCvrH9" xmlns:xlink="http://www.w3.org/1999/xlink" width="200" height="200"><path d="M544.312889 426.268444V166.570667a52.849778 52.849778 0 0 1 61.553778-52.053334 369.891556 369.891556 0 0 1 303.047111 303.047111 52.792889 52.792889 0 0 1-51.996445 61.553778h-259.754666a52.849778 52.849778 0 0 1-52.849778-52.849778z" fill="#07aef9" p-id="19603" data-spm-anchor-id="a313x.search_index.0.i16.36eb3a81LCvrH9" class="selected"></path><path d="M526.620444 523.207111h245.873778a52.849778 52.849778 0 0 1 52.849778 61.838222 330.296889 330.296889 0 1 1-386.958222-386.275555 52.849778 52.849778 0 0 1 61.838222 52.906666v245.191112a26.396444 26.396444 0 0 0 26.396444 26.339555z" fill="#07aef9" p-id="19604" data-spm-anchor-id="a313x.search_index.0.i15.36eb3a81LCvrH9" class="selected"></path></svg>