<?xml version="1.0" standalone="no"?><!DOCTYPE svg PUBLIC "-//W3C//DTD SVG 1.1//EN" "http://www.w3.org/Graphics/SVG/1.1/DTD/svg11.dtd"><svg t="1777925622398" class="icon" viewBox="0 0 1024 1024" version="1.1" xmlns="http://www.w3.org/2000/svg" p-id="2901" xmlns:xlink="http://www.w3.org/1999/xlink" width="200" height="200"><path d="M462.661818 28.625455a46.545455 46.545455 0 0 1 84.177455-3.677091l1.722182 3.700363 272.872727 654.126546a46.545455 46.545455 0 0 1-18.036364 57.250909l-3.258182 1.861818-208.058181 109.405091a23.272727 23.272727 0 0 1-23.994182-39.796364l2.327272-1.396363 208.058182-109.381819L505.6 46.545455 232.727273 700.695273l283.694545 149.178182a23.272727 23.272727 0 0 1-19.176727 42.309818l-2.466909-1.117091-283.694546-149.178182a46.545455 46.545455 0 0 1-22.621091-55.575273l1.326546-3.537454L462.638545 28.648727z" fill="#2c2c2c" p-id="2902"></path><path d="M325.818182 1024a23.272727 23.272727 0 0 1-2.722909-46.382545L325.818182 977.454545h164.072727v-218.856727l-106.216727-63.744-2.257455-1.512727a23.272727 23.272727 0 0 1 26.205091-38.4l82.269091 49.384727V535.272727a23.272727 23.272727 0 0 1 46.405818-2.722909l0.139637 2.722909v88.692364l44.683636-31.813818a23.272727 23.272727 0 0 1 29.277091 36.072727l-2.280727 1.861818-69.818182 49.687273-1.861818 1.140364V977.454545H698.181818a23.272727 23.272727 0 0 1 2.722909 46.382546L698.181818 1024H325.818182z" fill="#2c2c2c" p-id="2903"></path></svg>