<?xml version="1.0" standalone="no"?><!DOCTYPE svg PUBLIC "-//W3C//DTD SVG 1.1//EN" "http://www.w3.org/Graphics/SVG/1.1/DTD/svg11.dtd"><svg t="1770772333527" class="icon" viewBox="0 0 1731 1024" version="1.1" xmlns="http://www.w3.org/2000/svg" p-id="31174" xmlns:xlink="http://www.w3.org/1999/xlink" width="338.0859375" height="200"><path d="M1214.27284 1024H491.33746c-24.592226 0-44.620946-20.02872-44.620946-44.620946V44.620946c0-24.592226 20.02872-44.620946 44.620946-44.620946h722.93538c24.592226 0 44.620946 20.02872 44.620946 44.620946v934.758108c0 24.71899-20.02872 44.620946-44.620946 44.620946zM885.193365 454.068829c12.549641 0.380292 25.099282 1.267641 37.395395 2.408517-10.521416 13.817282-22.944293 26.747215-37.395395 38.409507v-40.818024z m81.128992 8.619955c-9.253776 14.70463-20.409012 28.648675-33.085417 41.578609 25.859866-7.352315 49.311216-18.634315 69.339935-33.085417-11.282-3.295865-23.451349-6.211438-36.254518-8.493192zM808.37435 456.477346c10.521416 13.817282 22.944293 26.747215 37.395395 38.409507v-40.818024c-12.676405 0.507056-25.099282 1.267641-37.395395 2.408517z m-108.256499 296.247586c0-12.296113-8.619955-19.268136-23.704877-19.268136-6.084674 0-9.634068 0.380292-11.408765 0.63382v39.42362c2.281753 0.380292 5.070562 0.507056 9.127012 0.507056 16.225798 0.126764 25.98663-7.859371 25.98663-21.29636z m64.396138-290.036148c-12.676405 2.408517-24.845754 5.197326-36.254519 8.493192 20.02872 14.451102 43.480069 25.733102 69.339936 33.085417-12.676405-13.056697-23.831641-26.873979-33.085417-41.578609zM803.68408 758.30255c-1.774697-6.084674-3.549393-13.183461-5.070562-19.521664-0.380292 1.521169-0.760584 3.042337-1.014112 4.69027-1.140876 5.197326-2.408517 10.521416-3.676158 15.211686-0.126764 0.507056-6.338203 22.817529-8.366427 29.916316H812.557564l-8.873484-30.296608z m129.679624-574.748205c12.042585 12.422877 22.690765 25.606338 31.564248 39.550384 12.422877-2.281753 24.338698-4.943798 35.493935-8.112899-19.521664-13.690517-42.212429-24.465462-67.058183-31.437485z m-87.593959 9.127012c-13.690517 11.155236-25.733102 23.197821-35.874226 36.254518 11.789057 1.140876 23.704877 1.901461 35.874226 2.281753v-38.536271z m75.171082 36.381282c-10.141124-13.056697-22.183709-25.099282-35.747462-36.254518v38.536271c12.042585-0.507056 23.958406-1.267641 35.747462-2.281753zM674.257985 802.162912c20.02872 0 36.508047-5.32409 47.409755-15.465215 8.746719-7.986135 13.690517-20.409012 13.690517-35.113642 0-14.07081-5.831146-26.493687-15.845506-34.353057-10.01436-7.986135-24.592226-11.789057-44.620946-11.789057-17.366675 0-32.198069 1.014112-43.860362 2.915573l-1.394404 0.253528v143.877198h35.36717v-50.832385c2.408517 0.380292 5.450854 0.507056 9.253776 0.507057z m193.441941 50.325328l-45.508294-145.905422h-44.74771l-44.367418 145.905422h36.761575l10.141124-36.634811h38.282743l11.028472 36.634811h38.409508z m58.691755 2.154989c43.606833 0 59.072048-24.71899 59.072048-45.888587 0-20.789304-11.662293-34.479822-37.902451-44.113889-19.014608-7.098787-25.35281-10.774944-25.352811-18.507552 0-5.95791 5.95791-12.042585 19.141372-12.042585 13.817282 0 23.958406 4.183214 28.902204 6.591731l1.774696 0.887348 8.1129-29.155731-1.267641-0.63382c-10.267888-4.943798-22.817529-7.352315-37.141867-7.352315-32.705125 0-55.649418 18.254023-55.649418 44.367417 0 19.521664 13.563753 34.353058 40.564496 43.860362 16.732855 5.831146 22.817529 10.64818 22.817529 18.254023 0 8.746719-7.605843 13.817282-20.916068 13.817282-13.563753 0-27.000743-4.563506-34.986878-8.74672l-1.901461-1.014112-7.352315 29.789552 1.140877 0.63382c7.605843 4.563506 23.831641 9.253776 40.944788 9.253776z m115.862342 0c43.606833 0 59.072048-24.71899 59.072048-45.888587 0-20.789304-11.662293-34.479822-37.902451-44.113889-19.014608-7.098787-25.35281-10.774944-25.35281-18.507552 0-5.95791 5.831146-12.042585 19.014607-12.042585 13.817282 0 23.958406 4.183214 28.902204 6.591731l1.774696 0.887348 8.1129-29.155731-1.267641-0.63382c-10.267888-4.943798-22.817529-7.352315-37.141867-7.352315-32.705125 0-55.649418 18.254023-55.649418 44.367417 0 19.521664 13.563753 34.353058 40.437732 43.860362 16.732855 5.831146 22.817529 10.64818 22.817529 18.254023 0 8.746719-7.605843 13.817282-20.916068 13.817282-13.563753 0-27.000743-4.563506-34.986878-8.74672l-1.901461-1.014112-7.352315 29.789552 1.140877 0.63382c7.859371 4.563506 24.08517 9.253776 41.198316 9.253776z m14.577866-378.390691c23.578113-24.211934 40.564496-53.114137 49.311216-84.678386H1064.818024c-6.464967 17.746967-16.225798 34.353058-28.902203 49.311216-15.465214-5.831146-32.705125-10.774944-51.212677-14.70463 4.436742-11.282 7.986135-22.817529 10.648181-34.606586h-40.564497c-2.662045 9.507304-5.831146 18.887844-9.887596 27.888091-19.3949-2.535281-39.550384-4.05645-59.832631-4.563506v-23.324585h-39.42362v23.324585c-20.409012 0.63382-40.437732 2.154989-59.832632 4.563506-4.183214-9.000248-7.225551-18.380787-9.887596-27.888091h-40.564496c2.662045 11.789057 6.084674 23.324585 10.64818 34.606586-18.507551 3.929686-35.620698 8.873484-51.085912 14.70463-12.676405-14.831394-22.564001-31.564249-28.902204-49.311216h-41.198316c8.873484 32.198069 26.493687 61.607329 50.70562 86.199554 0.507056 0.507056 1.014112 1.014112 1.521169 1.394405 45.38153 45.128002 112.946769 73.903441 188.371379 73.903441 74.917554 0 141.975737-28.395147 187.357266-73.016093 1.521169-1.014112 2.788809-2.281753 4.05645-3.802921z m56.02971-132.341669c0-6.591731-0.380292-13.056697-1.140876-19.521664H619.115623c-0.760584 6.464967-1.140876 12.929933-1.140877 19.521664 0 6.591731 0.380292 13.183461 1.140877 19.521664H1111.720723c0.63382-6.464967 1.140876-12.929933 1.140876-19.521664z m-6.845258-47.663283c-9.127012-32.705125-27.000743-62.494677-51.973261-87.340431-0.63382-0.760584-1.394405-1.394405-2.154989-2.028225-45.38153-44.240654-112.186185-72.255509-186.596682-72.255508-74.537262 0-141.341916 28.141619-186.723447 72.382272-0.63382 0.507056-1.267641 1.140876-1.90146 1.774697-24.845754 24.845754-42.973013 54.76207-51.973261 87.467195h41.198316c6.718495-18.507551 16.986383-35.747462 30.423372-50.959148 15.33845 5.704382 32.198069 10.394652 50.325328 14.197573-4.943798 11.915821-8.746719 24.211934-11.535528 36.761575H775.795989c2.915573-10.267888 6.464967-20.409012 11.028473-30.169844 19.014608 2.408517 38.789799 3.802922 58.691755 4.436742v25.733102h39.42362v-25.733102c19.901956-0.63382 39.677148-2.028225 58.691755-4.436742 4.563506 9.760832 8.112899 19.901956 11.028472 30.169844h40.691261c-2.915573-12.549641-6.591731-24.845754-11.535529-36.761575 18.254023-3.802922 35.113642-8.493191 50.452092-14.197573 13.436989 15.33845 23.704877 32.578361 30.423372 50.959148h41.325081z m-375.601882-81.255756c11.155236 3.169101 23.071057 5.831146 35.493934 8.112899 9.000248-13.944046 19.521664-27.127507 31.564249-39.550384-24.845754 6.972023-47.536519 17.746967-67.058183 31.437485z m0 0" fill="#0e2152" p-id="31175"></path></svg>